<?xml version="1.0" encoding="UTF-8"?>
<svg version="1.1" xmlns="http://www.w3.org/2000/svg" width="500" height="500">
<path d="M0 0 C165 0 330 0 500 0 C500 165 500 330 500 500 C335 500 170 500 0 500 C0 335 0 170 0 0 Z " fill="#FEFEFE" transform="translate(0,0)"/>
<path d="M0 0 C0.99 0 1.98 0 3 0 C1.76330124 6.90764682 0.04741791 13.49933153 -2.125 20.16796875 C-2.42772324 21.11218185 -2.73044647 22.05639496 -3.04234314 23.02922058 C-4.02301833 26.08368504 -5.01138824 29.13559608 -6 32.1875 C-6.68870169 34.32683467 -7.37692989 36.46632181 -8.06469727 38.60595703 C-9.74396609 43.82635251 -11.42916049 49.04481212 -13.11602783 54.26275635 C-14.29954806 57.92755865 -15.47662293 61.59440851 -16.65234375 65.26171875 C-20.3029635 76.63412447 -23.99455424 87.99269594 -27.7109375 99.34375 C-34.21986946 119.22688188 -40.70747751 139.11378567 -47.00030518 159.0664978 C-52.26531324 175.75523292 -57.62738984 192.41230631 -63.00267029 209.0657692 C-63.6838153 211.17608412 -64.36480602 213.28644878 -65.04577637 215.39682007 C-66.32548995 219.362397 -67.60597174 223.32772548 -68.88671875 227.29296875 C-69.4655204 229.08547058 -69.4655204 229.08547058 -70.05601501 230.91418457 C-70.41482254 232.0242688 -70.77363007 233.13435303 -71.14331055 234.27807617 C-71.45495651 235.24251144 -71.76660248 236.20694672 -72.08769226 237.2006073 C-73.04506925 240.13829383 -74.01977996 243.06986442 -75 246 C-76.32 246 -77.64 246 -79 246 C-77.28139657 237.45197245 -74.58676761 229.32572187 -71.83398438 221.0625 C-68.01752128 210.6657137 -68.01752128 210.6657137 -69.625 200.125 C-71.58355549 195.20472646 -73.19917878 190.26485152 -74.6875 185.1875 C-75.00871826 184.11169678 -75.00871826 184.11169678 -75.33642578 183.01416016 C-76.50146222 179.02890004 -77.41137818 175.12035271 -78 171 C-78.66 171 -79.32 171 -80 171 C-80.10983939 171.54519413 -80.21967878 172.09038826 -80.33284664 172.65210342 C-81.51370703 178.26052842 -83.08927399 183.59960102 -84.97680664 189.00683594 C-85.4212037 190.30054989 -85.4212037 190.30054989 -85.87457848 191.62039948 C-86.52049894 193.49999588 -87.16847098 195.37888826 -87.81826591 197.25714874 C-89.63284841 202.50532571 -91.42929547 207.7597118 -93.22705078 213.01367188 C-93.61168078 214.13685444 -93.99631079 215.260037 -94.39259624 216.4172554 C-98.77869205 229.24399964 -103.07059375 242.10210196 -107.35418272 254.96335793 C-107.99761012 256.89517774 -108.64125895 258.82692365 -109.2849617 260.75865173 C-111.67784607 267.94006622 -114.06885506 275.12210369 -116.4588362 282.30448484 C-118.67414854 288.9617369 -120.89122951 295.61839951 -123.10844696 302.27501726 C-126.17185067 311.4721379 -129.23475966 320.6694229 -132.29612637 329.86722183 C-137.19339022 344.57949895 -142.09658798 359.28976393 -147 374 C-172.08 374 -197.16 374 -223 374 C-225.97 364.8734375 -225.97 364.8734375 -229 355.5625 C-230.65126179 350.49149841 -232.30285858 345.42060635 -233.95469666 340.34979248 C-235.5591811 335.42417082 -237.16339103 330.49846099 -238.76611328 325.57226562 C-249.11174638 293.77622179 -259.57655327 262.0197582 -270.04717827 230.26471519 C-279.84171051 200.55971935 -289.61543502 170.84804089 -299.35153198 141.12384033 C-301.88179292 133.40209004 -304.42098618 125.68333535 -306.96592712 117.96641541 C-308.67814882 112.77417388 -310.38632556 107.58060347 -312.09439087 102.38699341 C-312.89878363 99.94398923 -313.70472282 97.50149363 -314.51229858 95.05953979 C-315.61245667 91.73239997 -316.7072447 88.40353965 -317.80078125 85.07421875 C-318.29120407 83.59813141 -318.29120407 83.59813141 -318.79153442 82.09222412 C-319.08502777 81.19513733 -319.37852112 80.29805054 -319.6809082 79.3737793 C-319.93733597 78.59640915 -320.19376373 77.819039 -320.45796204 77.01811218 C-321 75 -321 75 -321 72 C-297.24 72 -273.48 72 -249 72 C-241.41740788 93.66454892 -241.41740788 93.66454892 -238.9609375 101.86328125 C-237.86828323 105.42995351 -236.69146707 108.96549366 -235.5 112.5 C-233.57993009 118.20134308 -231.78058433 123.93162574 -230.03125 129.6875 C-228.90384447 133.30886321 -227.71030453 136.90576229 -226.5 140.5 C-224.5801358 146.20141491 -222.78058616 151.93161975 -221.03125 157.6875 C-219.90384447 161.30886321 -218.71030453 164.90576229 -217.5 168.5 C-215.5801358 174.20141491 -213.78058616 179.93161975 -212.03125 185.6875 C-210.90384447 189.30886321 -209.71030453 192.90576229 -208.5 196.5 C-206.5801358 202.20141491 -204.78058616 207.93161975 -203.03125 213.6875 C-201.90384447 217.30886321 -200.71030453 220.90576229 -199.5 224.5 C-197.5801358 230.20141491 -195.78058616 235.93161975 -194.03125 241.6875 C-192.90384154 245.30887263 -191.70990217 248.90562246 -190.5 252.5 C-187.23471296 262.24562594 -184.05046329 271.91855549 -182 282 C-181.34 282 -180.68 282 -180 282 C-179.84711014 281.39962921 -179.69422028 280.79925842 -179.53669739 280.18069458 C-177.23493 271.42981657 -174.38399641 262.8795769 -171.51171875 254.3046875 C-170.97151738 252.68494148 -170.43154967 251.06511752 -169.89179993 249.44522095 C-168.45750873 245.14349124 -167.01928055 240.84308798 -165.58007812 236.54299927 C-164.68143149 233.85686065 -163.78398961 231.17032256 -162.88696289 228.48364258 C-156.91896578 210.60903175 -150.94902508 192.73546086 -144.82826805 174.91246223 C-140.24750571 161.57026445 -135.71415114 148.21355614 -131.26332664 134.827425 C-130.38995483 132.20090919 -129.51544926 129.574773 -128.64070129 126.94871521 C-125.92205049 118.78589928 -123.20676825 110.62196862 -120.49497509 102.45687199 C-119.36389413 99.05193379 -118.23173419 95.6473549 -117.09942055 92.24282646 C-116.30513901 89.85302366 -115.51255923 87.46266078 -114.72001648 85.07228088 C-114.23945826 83.62701523 -113.75881638 82.18177739 -113.27807617 80.73657227 C-113.06051163 80.07871483 -112.84294708 79.42085739 -112.61878967 78.74306488 C-111.84638219 76.42556026 -111.09405394 74.18810789 -110 72 C-88.55 72 -67.1 72 -45 72 C-44.01 74.97 -43.02 77.94 -42 81 C-41.32354025 82.97161209 -40.64311834 84.94187362 -39.95703125 86.91015625 C-39.60576172 87.91884766 -39.25449219 88.92753906 -38.89257812 89.96679688 C-38.53615234 90.98837891 -38.17972656 92.00996094 -37.8125 93.0625 C-37.44447266 94.11888672 -37.07644531 95.17527344 -36.69726562 96.26367188 C-35.7987128 98.84263518 -34.89961347 101.42140653 -34 104 C-33.62488281 102.741875 -33.24976563 101.48375 -32.86328125 100.1875 C-24.30869788 71.54371575 -24.30869788 71.54371575 -20 59.5625 C-17.21677798 51.81765119 -14.88108534 43.98339054 -12.60449219 36.07763672 C-9.9110626 26.82033228 -6.93768443 17.66086229 -3.75 8.5625 C-3.3624353 7.45165039 -3.3624353 7.45165039 -2.96704102 6.31835938 C-1.12335515 1.12335515 -1.12335515 1.12335515 0 0 Z " fill="#010101" transform="translate(331,29)"/>
<path d="M0 0 C22.11 0 44.22 0 67 0 C65.11017811 7.55928755 63.19795761 14.8247861 60.69921875 22.16015625 C60.38692322 23.09001846 60.07462769 24.01988068 59.75286865 24.97792053 C59.08365972 26.9694279 58.41247969 28.96027385 57.73947144 30.95050049 C55.91502612 36.34767452 54.10687637 41.75031228 52.296875 47.15234375 C51.92908432 48.24889282 51.56129364 49.34544189 51.18235779 50.47521973 C47.87706287 60.34018174 44.64452585 70.22773322 41.4375 80.125 C35.42680164 98.66028712 29.34998829 117.17347973 23.2619133 135.68345642 C16.510276 156.21133281 9.76362927 176.7405295 3.08956909 197.29379272 C-0.67603982 208.88889706 -4.46530316 220.47610994 -8.26953125 232.05859375 C-8.61834476 233.1207523 -8.61834476 233.1207523 -8.97420502 234.20436859 C-11.30409239 241.29891923 -13.63480161 248.39319772 -15.96856022 255.48647594 C-16.843769 258.14726263 -17.7181351 260.80832581 -18.59235191 263.46943855 C-19.18165121 265.26229768 -19.77204453 267.0547971 -20.36250305 268.84727478 C-23.98461713 279.87535369 -27.47991269 290.93686844 -31 302 C-56.08 302 -81.16 302 -107 302 C-109.97 292.945625 -112.94 283.89125 -116 274.5625 C-116.91910156 271.76209229 -117.83820313 268.96168457 -118.78515625 266.07641602 C-123.9241406 250.4055914 -129.00114963 234.71614284 -134 219 C-136.1843013 222.27645195 -137.0503049 225.0438432 -138.1875 228.8125 C-138.62821911 230.25541839 -139.06966669 231.69811441 -139.51171875 233.140625 C-139.74938965 233.91986328 -139.98706055 234.69910156 -140.23193359 235.50195312 C-141.62465104 240.03160505 -143.06270204 244.54683335 -144.5 249.0625 C-144.7990625 250.00319336 -145.098125 250.94388672 -145.40625 251.91308594 C-147.51223995 258.51844525 -149.69109861 265.09579522 -151.8984375 271.66796875 C-153.25468489 275.77037664 -154.5150448 279.89799268 -155.7734375 284.03125 C-159.96035584 297.66989817 -164.38669326 311.23803721 -168.9296875 324.76171875 C-170.29332623 328.88747242 -171.56341559 333.03835779 -172.828125 337.1953125 C-174.39608875 342.28596815 -176.00944895 347.36177618 -177.625 352.4375 C-177.92647949 353.38568604 -178.22795898 354.33387207 -178.53857422 355.31079102 C-179.99574574 359.88426159 -181.46611907 364.45151149 -183 369 C-184.32 369 -185.64 369 -187 369 C-186.36042469 362.19557848 -184.21548057 355.9819192 -182.08984375 349.51171875 C-181.47822379 347.6259195 -180.8666051 345.74011984 -180.25503826 343.85430336 C-179.60322208 341.84807509 -178.94860476 339.84278092 -178.29315186 337.83773804 C-176.91942838 333.63505474 -175.55391647 329.42973267 -174.18994141 325.22387695 C-172.79708477 320.92996656 -171.40393221 316.63615522 -170.00817871 312.34318542 C-165.93084322 299.80181178 -161.89148894 287.24849774 -157.875 274.6875 C-157.55866608 273.69901062 -157.24233215 272.71052124 -156.91641235 271.69207764 C-151.04616219 253.34412427 -145.24818398 234.973499 -139.4546814 216.60119629 C-133.92568053 199.06954102 -128.35966247 181.55218405 -122.67315674 164.07092285 C-121.62506567 160.84653897 -120.5794098 157.62136583 -119.53346252 154.39628601 C-118.06476252 149.86810167 -116.59497516 145.34027052 -115.125 140.8125 C-114.84723724 139.95679413 -114.56947449 139.10108826 -114.28329468 138.2194519 C-111.22500747 128.80069247 -108.15363125 119.38736348 -105 110 C-104.34 110 -103.68 110 -103 110 C-94.74565822 135.13455284 -86.50802614 160.274912 -78.43069458 185.4670105 C-77.76916767 187.52879138 -77.10614515 189.59009299 -76.44161987 191.65090942 C-75.51792943 194.51720298 -74.59991805 197.38525071 -73.68359375 200.25390625 C-73.27234253 201.52530457 -73.27234253 201.52530457 -72.8527832 202.8223877 C-71.85018368 205.97939435 -71 208.66600498 -71 212 C-70.34 212 -69.68 212 -69 212 C-68.75862305 210.78618652 -68.51724609 209.57237305 -68.26855469 208.32177734 C-66.86298797 202.01759122 -64.77217002 195.96359329 -62.703125 189.8515625 C-62.26824553 188.55511355 -61.83382954 187.25850904 -61.39984131 185.96176147 C-60.25174447 182.53453487 -59.09856484 179.10904252 -57.94390869 175.684021 C-55.92027724 169.67934099 -53.90471141 163.67194966 -51.890625 157.6640625 C-51.65933521 156.9745154 -51.42804543 156.2849683 -51.18974686 155.57452583 C-46.87656178 142.70754185 -42.6668112 129.80792588 -38.47586441 116.90069008 C-33.56614892 101.78187172 -28.61359679 86.67758482 -23.6328125 71.58203125 C-23.28296799 70.52171944 -22.93312347 69.46140762 -22.57267761 68.36896515 C-20.45101428 61.9396188 -18.32805199 55.51070193 -16.20471191 49.08190918 C-14.0393091 42.52498623 -11.87525336 35.96761856 -9.71095276 29.41033173 C-6.4749595 19.60656026 -3.23733338 9.80332948 0 0 Z " fill="#010101" transform="translate(425,101)"/>
</svg>
